<svg xmlns="http://www.w3.org/2000/svg" width="19.001" height="19" viewBox="0 0 19.001 19">
  <path id="Path_323" data-name="Path 323" d="M-15453.8-20765.5a2.5,2.5,0,0,1,2.5-2.5,2.5,2.5,0,0,1,2.5,2.5,2.5,2.5,0,0,1-2.5,2.5A2.5,2.5,0,0,1-15453.8-20765.5Zm2,0a.5.5,0,0,0,.5.5.5.5,0,0,0,.5-.5.5.5,0,0,0-.5-.5A.5.5,0,0,0-15451.8-20765.5Zm-8,0a2.5,2.5,0,0,1,2.5-2.5,2.5,2.5,0,0,1,2.5,2.5,2.5,2.5,0,0,1-2.5,2.5A2.5,2.5,0,0,1-15459.8-20765.5Zm2,0a.5.5,0,0,0,.5.5.5.5,0,0,0,.5-.5.5.5,0,0,0-.5-.5A.5.5,0,0,0-15457.8-20765.5Zm-.135-3.5a2.292,2.292,0,0,1-2.212-1.758l-2.487-9.027a.334.334,0,0,0-.324-.256h-2.081a.982.982,0,0,1-.965-.986.972.972,0,0,1,.965-.975h2.081a2.3,2.3,0,0,1,2.217,1.762l.323,1.268h11.125a2.286,2.286,0,0,1,1.794.893,2.239,2.239,0,0,1,.428,1.961l-1.522,5.355a2.292,2.292,0,0,1-2.222,1.764Zm-.324-2.211a.341.341,0,0,0,.324.256h7.119a.347.347,0,0,0,.328-.268l1.528-5.355a.355.355,0,0,0-.073-.287.356.356,0,0,0-.261-.131h-10.629Z" transform="translate(15466.001 20782)" fill="#151616"/>
</svg>
