<svg xmlns="http://www.w3.org/2000/svg" width="44" height="44" viewBox="0 0 44 44">
  <g id="Group_1405" data-name="Group 1405" transform="translate(-1619 -939)">
    <g id="Ellipse_15" data-name="Ellipse 15" transform="translate(1619 939)" fill="rgba(255,255,255,0.15)" stroke="rgba(255,255,255,0.5)" stroke-width="1">
      <circle cx="22" cy="22" r="22" stroke="none"/>
      <circle cx="22" cy="22" r="21.5" fill="none"/>
    </g>
    <path id="Path_248" data-name="Path 248" d="M-6570.932,3418.585l-1.348-1.4a.374.374,0,0,1-.03-.029l-1.481-1.54a.624.624,0,0,1,0-.855.566.566,0,0,1,.821,0l.531.553h0l1.858,1.933V3409.6a.593.593,0,0,1,.581-.6.593.593,0,0,1,.581.6v7.709l2.012-2.094.005.006.449-.469a.567.567,0,0,1,.822,0,.623.623,0,0,1,0,.855l-1.481,1.54a.592.592,0,0,1-.07.062l-1.317,1.371a1.339,1.339,0,0,1-.967.415A1.336,1.336,0,0,1-6570.932,3418.585Z" transform="translate(8210.961 -2453)" fill="#fff"/>
  </g>
</svg>
