<svg xmlns="http://www.w3.org/2000/svg" width="19" height="19" viewBox="0 0 19 19">
  <path id="Path_253" data-name="Path 253" d="M-6573.2,3428a3.806,3.806,0,0,1-3.793-3.559.66.66,0,0,1-.006-.1v-.035c0-.036,0-.072,0-.108h0v-1.092a.806.806,0,0,1,.808-.808.807.807,0,0,1,.807.808v1.17a2.167,2.167,0,0,0,.64,1.466,2.171,2.171,0,0,0,1.544.641h11.4a2.186,2.186,0,0,0,2.184-2.186v-1.092a.807.807,0,0,1,.808-.808.806.806,0,0,1,.807.808v1.234a.989.989,0,0,1-.007.122A3.807,3.807,0,0,1-6561.8,3428Zm4.262-6.189-1.875-1.875c-.015-.012-.028-.025-.042-.039l-2.059-2.059a.81.81,0,0,1,0-1.143.807.807,0,0,1,1.142,0l.739.739v0l2.584,2.584v-10.208a.807.807,0,0,1,.808-.807.808.808,0,0,1,.808.807v10.3l2.8-2.8.008.008.624-.626a.809.809,0,0,1,1.143,0,.809.809,0,0,1,0,1.143l-2.06,2.059a.716.716,0,0,1-.1.083l-1.831,1.832a1.9,1.9,0,0,1-1.344.555A1.892,1.892,0,0,1-6568.938,3421.812Z" transform="translate(6577 -3409.001)" fill="#fff"/>
</svg>
