<svg id="Component_7_1" data-name="Component 7 – 1" xmlns="http://www.w3.org/2000/svg" width="152" height="150" viewBox="0 0 152 150">
  <g id="Component_6_1" data-name="Component 6 – 1">
    <circle id="Ellipse_27" data-name="Ellipse 27" cx="75" cy="75" r="75" transform="translate(2)" fill="#f5f5f5"/>
    <path id="Path_273" data-name="Path 273" d="M-3885.32-5848.157a15.092,15.092,0,0,1,15-15.151,15.263,15.263,0,0,1,14.992,15.128A15.1,15.1,0,0,1-3870.32-5833,15.1,15.1,0,0,1-3885.32-5848.157Zm-45.438,0a15.089,15.089,0,0,1,15-15.151,15.084,15.084,0,0,1,14.988,15.151,15.086,15.086,0,0,1-14.988,15.16A15.091,15.091,0,0,1-3930.758-5848.157Zm12.218-17.979a14.013,14.013,0,0,1-13.5-10.7l-16.117-64.971a3.113,3.113,0,0,0-3.015-2.382h-13.471a5.39,5.39,0,0,1-5.356-5.4,5.389,5.389,0,0,1,5.356-5.4c19.836,0,25.381,4.407,26.975,10.7l2.27,8.936h79.481a13.917,13.917,0,0,1,10.886,5.424,13.582,13.582,0,0,1,2.617,11.922l-9.909,41.151a13.965,13.965,0,0,1-13.5,10.725Z" transform="translate(3970 5967.998)" fill="#fff"/>
  </g>
  <path id="Path_274" data-name="Path 274" d="M-3885.32-5848.157a15.092,15.092,0,0,1,15-15.151,15.263,15.263,0,0,1,14.992,15.128A15.1,15.1,0,0,1-3870.32-5833,15.1,15.1,0,0,1-3885.32-5848.157Zm10.841,0a4.155,4.155,0,0,0,4.159,4.234,4.311,4.311,0,0,0,4.162-4.234,4.145,4.145,0,0,0-4.162-4.221A4.146,4.146,0,0,0-3874.479-5848.157Zm-56.279,0a15.089,15.089,0,0,1,15-15.151,15.084,15.084,0,0,1,14.988,15.151,15.086,15.086,0,0,1-14.988,15.16A15.091,15.091,0,0,1-3930.758-5848.157Zm10.83,0a4.159,4.159,0,0,0,4.167,4.234,4.306,4.306,0,0,0,4.16-4.234,4.146,4.146,0,0,0-4.16-4.221A4.15,4.15,0,0,0-3919.928-5848.157Zm1.388-17.979a14.013,14.013,0,0,1-13.5-10.7l-16.117-64.971a3.113,3.113,0,0,0-3.015-2.382h-13.471a5.39,5.39,0,0,1-5.356-5.4,5.389,5.389,0,0,1,5.356-5.4h13.471a14.012,14.012,0,0,1,13.5,10.7l2.27,8.936h79.481a13.917,13.917,0,0,1,10.886,5.424,13.582,13.582,0,0,1,2.617,11.922l-9.909,41.151a13.965,13.965,0,0,1-13.5,10.725Zm-3.01-13.183a3.109,3.109,0,0,0,3.01,2.374h52.713a3.118,3.118,0,0,0,3.01-2.4l9.925-41.2a3.038,3.038,0,0,0-.6-2.632,3.124,3.124,0,0,0-2.419-1.24h-76.744Z" transform="translate(3970 5967.998)" fill="#ababab"/>
</svg>
