<svg id="Component_8_1" data-name="Component 8 – 1" xmlns="http://www.w3.org/2000/svg" width="150" height="150" viewBox="0 0 150 150">
  <g id="Component_6_1" data-name="Component 6 – 1">
    <g id="Component_7_1" data-name="Component 7 – 1">
      <circle id="Ellipse_27" data-name="Ellipse 27" cx="75" cy="75" r="75" fill="#f5f5f5"/>
    </g>
    <path id="Path_275" data-name="Path 275" d="M179.839,79.073a24.11,24.11,0,0,0-15,5.445c-4.726-4.081-9.231-6.117-13.414-6.117h0a21.443,21.443,0,0,0-15.3,6.336,21.7,21.7,0,0,0,.053,30.587l26.793,25.344a2.706,2.706,0,0,0,3.7,0l26.874-25.431a21.718,21.718,0,0,0,0-30.587S184.992,79.045,179.839,79.073Z" transform="translate(-89.846 -33.399)" fill="#fff"/>
  </g>
  <path id="Path_276" data-name="Path 276" d="M193.547,84.675a19.245,19.245,0,0,0-13.709-5.6,24.11,24.11,0,0,0-15,5.445c-4.726-4.081-9.231-6.117-13.414-6.117h0a21.443,21.443,0,0,0-15.3,6.336,21.7,21.7,0,0,0,.053,30.587l26.793,25.344a2.706,2.706,0,0,0,3.7,0l26.874-25.431a21.718,21.718,0,0,0,0-30.587Zm-3.783,26.839-24.924,23.6-24.924-23.5a16.483,16.483,0,0,1,0-23.229A16.1,16.1,0,0,1,151.4,83.626c3.231,0,7.219,2.193,11.572,6.336h0a2.706,2.706,0,0,0,3.766,0,19.009,19.009,0,0,1,13.04-5.567,13.717,13.717,0,0,1,9.987,3.941,16.551,16.551,0,0,1,0,23.177Z" transform="translate(-89.846 -33.399)" fill="#ababab"/>
</svg>
