<svg xmlns="http://www.w3.org/2000/svg" width="16" height="20" viewBox="0 0 16 20">
  <path id="Path_251" data-name="Path 251" d="M-3003.5,21790a1.493,1.493,0,0,1-1.058-.437,1.48,1.48,0,0,1-.437-1.059v-17.012a1.474,1.474,0,0,1,.438-1.055,1.483,1.483,0,0,1,1.054-.437h9.227a1.478,1.478,0,0,1,1.051.439l3.789,3.779a1.461,1.461,0,0,1,.441,1.057v13.229a1.5,1.5,0,0,1-.441,1.059,1.485,1.485,0,0,1-1.058.438Zm.357-1.857h12.292v-12.174h-2.63a1.471,1.471,0,0,1-1.054-.437,1.477,1.477,0,0,1-.441-1.061v-2.617h-8.166Z" transform="translate(3004.997 -21770)" fill="#dd2b1c"/>
</svg>
