<svg xmlns="http://www.w3.org/2000/svg" width="18" height="20" viewBox="0 0 18 20">
  <path id="noun-filter-5642413" d="M155.073,45.567a1.863,1.863,0,0,1,.982.28,1.882,1.882,0,0,1,.7.766,1.412,1.412,0,0,1,.145.667,2.144,2.144,0,0,1-.329,1.316c-.349.477-4.984,6.7-4.984,6.7v6.578a1.9,1.9,0,0,1-.28,1,1.879,1.879,0,0,1-.757.7l-3.583,1.807a1.883,1.883,0,0,1-2.705-1.687V55.3l-4.985-6.7a1.9,1.9,0,0,1,.238-2.534,1.864,1.864,0,0,1,1.263-.493Zm-.184,1.982H140.953l5.271,7.089v8.9l3.394-1.712V54.638Z" transform="translate(-138.898 -45.567)" fill="#dd2b1c"/>
</svg>
