<svg xmlns="http://www.w3.org/2000/svg" width="21" height="19" viewBox="0 0 21 19">
  <path id="Path_322" data-name="Path 322" d="M142.127,96.417l7.137-6.544a4.487,4.487,0,0,0,0-6.427,4,4,0,0,0-2.86-1.093A5.531,5.531,0,0,0,142.67,83.9a.793.793,0,0,1-1.078,0h0a5.448,5.448,0,0,0-3.314-1.757,4.687,4.687,0,0,0-3.288,1.318,4.469,4.469,0,0,0,0,6.442l7.137,6.517m0,2.716-8.539-7.8a6.48,6.48,0,0,1,0-9.309,6.726,6.726,0,0,1,4.678-1.891h.01a6.4,6.4,0,0,1,3.864,1.6,7.532,7.532,0,0,1,4.217-1.387l.142,0a5.953,5.953,0,0,1,4.143,1.65l.027.026a6.5,6.5,0,0,1,.067,9.21l-.031.037Z" transform="translate(-131.619 -80.132)" fill="#151616"/>
</svg>
