<svg xmlns="http://www.w3.org/2000/svg" width="33" height="30" viewBox="0 0 33 30">
  <path id="Path_284" data-name="Path 284" d="M148.132,107.416l12.224-11.587a8.134,8.134,0,0,0,0-11.381,6.724,6.724,0,0,0-4.9-1.935,9.318,9.318,0,0,0-6.4,2.734,1.326,1.326,0,0,1-1.847,0h0c-2.135-2.034-4.091-3.111-5.675-3.111h-.017a7.892,7.892,0,0,0-5.615,2.335,8.1,8.1,0,0,0,0,11.406l12.224,11.54m0,2.717L134.546,97.3a10.147,10.147,0,0,1,0-14.26,9.861,9.861,0,0,1,6.977-2.91h.019c1.99,0,4.207,1.1,6.592,3.272a11.172,11.172,0,0,1,7.28-2.894l.211,0A8.575,8.575,0,0,1,161.7,83l.026.026a10.181,10.181,0,0,1,.123,14.089l-.028.041-.152.144Z" transform="translate(-131.619 -80.133)" fill="#dd2b1c"/>
</svg>
