<svg xmlns="http://www.w3.org/2000/svg" width="30" height="30" viewBox="0 0 30 30">
  <path id="Path_346" data-name="Path 346" d="M-15466-20767a15,15,0,0,1,15-15,15,15,0,0,1,15,15,15,15,0,0,1-15,15A15,15,0,0,1-15466-20767Zm5.811-9.2a12.921,12.921,0,0,0-3.808,9.2,12.917,12.917,0,0,0,3.808,9.2A12.915,12.915,0,0,0-15451-20754a12.937,12.937,0,0,0,9.2-3.807,12.942,12.942,0,0,0,3.808-9.2,12.945,12.945,0,0,0-3.808-9.2,12.934,12.934,0,0,0-9.2-3.8A12.912,12.912,0,0,0-15460.19-20776.2Zm1.189,9.2a8.012,8.012,0,0,1,8-8,7.955,7.955,0,0,1,4.866,1.648l-1.434,1.436A5.924,5.924,0,0,0-15451-20773a6.006,6.006,0,0,0-6,6,6,6,0,0,0,6,6,5.943,5.943,0,0,0,3.433-1.08l1.434,1.434A7.919,7.919,0,0,1-15451-20759,8.008,8.008,0,0,1-15459-20767Z" transform="translate(15466.001 20782)" fill="#fff"/>
</svg>
