<svg xmlns="http://www.w3.org/2000/svg" width="28.001" height="29.998" viewBox="0 0 28.001 29.998">
  <path id="Path_345" data-name="Path 345" d="M-15467-20755.5a4.5,4.5,0,0,1,3.5-4.389c0-.033,0-.066,0-.1v-18.029l-2.2-1.08a.994.994,0,0,1-.459-1.334.994.994,0,0,1,1.336-.459l2.7,1.318a1.056,1.056,0,0,1,.625.893v18.691a.85.85,0,0,1,0,.1,4.514,4.514,0,0,1,3.4,3.395h12.613a.985.985,0,0,1,.609.209.074.074,0,0,1,.021.021h0a1.312,1.312,0,0,1,.156.156l1.842,2.367a1,1,0,0,1-.173,1.4.983.983,0,0,1-.609.209,1,1,0,0,1-.793-.381l-1.549-1.986h-12.123a4.5,4.5,0,0,1-4.39,3.5A4.5,4.5,0,0,1-15467-20755.5Zm2,0a2.5,2.5,0,0,0,2.5,2.5,2.5,2.5,0,0,0,2.5-2.5,2.5,2.5,0,0,0-2.5-2.5A2.5,2.5,0,0,0-15465-20755.5Zm10-3.5a3,3,0,0,1-3-3v-11a3,3,0,0,1,3-3h13a3,3,0,0,1,3,3v11a3,3,0,0,1-3,3Zm-1-14v11a1,1,0,0,0,1,1h13a1,1,0,0,0,1-1v-11a1,1,0,0,0-1-1h-13A1,1,0,0,0-15456-20773Z" transform="translate(15466.999 20781)" fill="#fff"/>
</svg>
