<svg xmlns="http://www.w3.org/2000/svg" width="30.001" height="30" viewBox="0 0 30.001 30">
  <g id="Group_1339" data-name="Group 1339" transform="translate(-405 -375)">
    <path id="Path_350" data-name="Path 350" d="M-15437.826-20756.342c-.568-.594-4.031-4.2-4.042-4.213h-12.313a1.815,1.815,0,0,1-1.82-1.8v-5.191h-4.126s-3.474,3.613-4.047,4.211a1.035,1.035,0,0,1-.751.344,1.238,1.238,0,0,1-.819-.344c-.308-.293-.25-.91-.25-1.807v-15.049a1.812,1.812,0,0,1,1.82-1.807h16.355a1.812,1.812,0,0,1,1.82,1.807v5.189h8.173a1.814,1.814,0,0,1,1.82,1.8v15.051c0,.125,0,.25,0,.365.006.693.011,1.193-.255,1.443a1.231,1.231,0,0,1-.819.34A1.035,1.035,0,0,1-15437.826-20756.342Zm-16.174-6.211h12.982l.589.615c.021.021,1.278,1.33,2.426,2.52V-20773h-8v3.643a1.813,1.813,0,0,1-1.82,1.811H-15454Zm-9.992-3.861c1.121-1.174,2.4-2.5,2.42-2.525l.589-.615H-15448V-20780h-15.99Z" transform="translate(15871 21159.002)" fill="#dd2b1c"/>
    <rect id="Rectangle_490" data-name="Rectangle 490" width="30" height="30" transform="translate(405 375)" fill="none"/>
  </g>
</svg>
