<svg xmlns="http://www.w3.org/2000/svg" width="30" height="30" viewBox="0 0 30 30">
  <path id="Path_347" data-name="Path 347" d="M-15445-20752a1,1,0,0,1-1-1,1,1,0,0,1,1-1h5.459l-6.25-6.252a2.985,2.985,0,0,1-1.211.254h-8a2.99,2.99,0,0,1-1.441-.367l-6.364,6.365h5.81a1,1,0,0,1,1,1,1,1,0,0,1-1,1h-8a1,1,0,0,1-1-1v-8a1,1,0,0,1,1-1,1,1,0,0,1,1,1v5.361l6.217-6.219a2.974,2.974,0,0,1-.226-1.141v-8a2.983,2.983,0,0,1,.256-1.211l-6.253-6.254v5.467a1,1,0,0,1-1,1,1,1,0,0,1-1-1v-8a1,1,0,0,1,1-1h8a1,1,0,0,1,1,1,1,1,0,0,1-1,1h-5.705l6.33,6.332a2.99,2.99,0,0,1,1.376-.334h8a2.99,2.99,0,0,1,1.14.225l6.218-6.223H-15445a1,1,0,0,1-1-1,1,1,0,0,1,1-1h8a1,1,0,0,1,1,1v8a1,1,0,0,1-1,1,1,1,0,0,1-1-1v-5.811l-6.366,6.367a2.984,2.984,0,0,1,.369,1.441v8a2.982,2.982,0,0,1-.334,1.377l6.331,6.332V-20761a1,1,0,0,1,1-1,1,1,0,0,1,1,1v8a1,1,0,0,1-1,1Zm-11-19v8a1,1,0,0,0,1,1h8a.994.994,0,0,0,.358-.066l.575-.578a.985.985,0,0,0,.066-.357v-8a.99.99,0,0,0-.183-.574l-.244-.246a1,1,0,0,0-.573-.182h-8A1,1,0,0,0-15456-20771Z" transform="translate(15466.002 20782)" fill="#dd2b1c"/>
</svg>
