<svg xmlns="http://www.w3.org/2000/svg" width="30" height="30" viewBox="0 0 30 30">
  <path id="Path_358" data-name="Path 358" d="M-2335,4399a15,15,0,0,1,15-15,15,15,0,0,1,15,15,15,15,0,0,1-15,15A15,15,0,0,1-2335,4399Zm5.808-9.192A12.917,12.917,0,0,0-2333,4399a12.914,12.914,0,0,0,3.807,9.192A12.914,12.914,0,0,0-2320,4412a12.91,12.91,0,0,0,9.192-3.808A12.91,12.91,0,0,0-2307,4399a12.913,12.913,0,0,0-3.807-9.192A12.91,12.91,0,0,0-2320,4386,12.914,12.914,0,0,0-2329.192,4389.808ZM-2321,4407v-10a1,1,0,0,1,1-1,1,1,0,0,1,1,1v10a1,1,0,0,1-1,1A1,1,0,0,1-2321,4407Zm0-15a1,1,0,0,1,1-1,1,1,0,0,1,1,1,1,1,0,0,1-1,1A1,1,0,0,1-2321,4392Z" transform="translate(2335 -4384)" fill="#dd2b1c"/>
</svg>
