<svg xmlns="http://www.w3.org/2000/svg" width="26" height="30" viewBox="0 0 26 30">
  <path id="Path_350" data-name="Path 350" d="M-2589.187,22064.875a2.112,2.112,0,0,0-.775.145l-8.938,3.422a1.954,1.954,0,0,0-1.265,1.959c.188,2.678.368,5.088.531,7.174.484,6.193,7.016,11.16,9.8,13.008a1.75,1.75,0,0,0,.962.293,1.734,1.734,0,0,0,1-.316c2.581-1.832,8.624-6.74,9.165-12.883l.006-.1c.215-2.7.408-5.389.53-7.174a1.943,1.943,0,0,0-1.264-1.951l-8.973-3.43a2.111,2.111,0,0,0-.775-.145m0-2a4.094,4.094,0,0,1,1.5.279l8.965,3.426a3.93,3.93,0,0,1,2.545,3.957c-.075,1.1-.278,4.008-.53,7.178l-.009.137a16.507,16.507,0,0,1-4.29,9.182,32.1,32.1,0,0,1-5.71,5.156l-.013.01a3.731,3.731,0,0,1-2.14.676,3.746,3.746,0,0,1-2.059-.621l-.009-.006a33.388,33.388,0,0,1-6.138-5.2c-2.775-3.055-4.306-6.191-4.551-9.322-.182-2.33-.361-4.748-.531-7.186a3.94,3.94,0,0,1,2.532-3.967l.012,0,8.93-3.42A4.1,4.1,0,0,1-2589.187,22062.875Z" transform="translate(2602.171 -22062.875)" fill="#dd2b1c"/>
</svg>
