<svg xmlns="http://www.w3.org/2000/svg" width="30" height="30" viewBox="0 0 30 30">
  <g id="Group_1338" data-name="Group 1338" transform="translate(-330 -2184)">
    <path id="Path_343" data-name="Path 343" d="M-15457.47-20761.467a22.075,22.075,0,0,1-7.478-2.352l-.073-.043-.98-.578s0-2.346,0-2.7a.607.607,0,0,1,.622-.6c.332,0,1.474,0,1.474,0a15.759,15.759,0,0,1,1.92-6.607,13.425,13.425,0,0,1,5.084-5.3l.9-.5v-.854a1,1,0,0,1,1-1h7.988a1,1,0,0,1,1.007,1v.842l.762.363.125.074a13.251,13.251,0,0,1,5.179,5.293,15.654,15.654,0,0,1,1.954,6.691s.968-.018,1.371,0a.658.658,0,0,1,.605.691c.015.33,0,2.736,0,2.736l-1.068.578c-4.041,2.258-9.772,2.729-13.865,2.729A44.306,44.306,0,0,1-15457.47-20761.467Zm-6.529-4.115.037.021c3.937,2.227,9.845,2.561,13.021,2.561,3.863,0,9.234-.428,12.9-2.482l.036-.021v-.234h-.725a1.245,1.245,0,0,1-1.23-1.258c0-4.449-2.538-9.035-6.044-10.932v7.928a1,1,0,0,1-1,1,1,1,0,0,1-1.006-1v-10h-6v10a1,1,0,0,1-1,1,1,1,0,0,1-1-1v-7.857c-3.434,1.936-5.919,6.488-5.919,10.861a1.246,1.246,0,0,1-1.236,1.258h-.84Z" transform="translate(15796.001 22971)" fill="#fff"/>
    <rect id="Rectangle_489" data-name="Rectangle 489" width="30" height="30" transform="translate(330 2184)" fill="none"/>
  </g>
</svg>
