<svg xmlns="http://www.w3.org/2000/svg" width="29.999" height="30.001" viewBox="0 0 29.999 30.001">
  <path id="Path_360" data-name="Path 360" d="M9685-14530.5a3.5,3.5,0,0,1,3.5-3.5,3.5,3.5,0,0,1,3.5,3.5,3.506,3.506,0,0,1-3.5,3.5A3.506,3.506,0,0,1,9685-14530.5Zm2,0a1.5,1.5,0,0,0,1.5,1.5,1.5,1.5,0,0,0,1.5-1.5,1.5,1.5,0,0,0-1.5-1.5A1.5,1.5,0,0,0,9687-14530.5Zm-12,0a3.5,3.5,0,0,1,3.5-3.5,3.5,3.5,0,0,1,3.5,3.5,3.506,3.506,0,0,1-3.5,3.5A3.506,3.506,0,0,1,9675-14530.5Zm2,0a1.5,1.5,0,0,0,1.5,1.5,1.5,1.5,0,0,0,1.5-1.5,1.5,1.5,0,0,0-1.5-1.5A1.5,1.5,0,0,0,9677-14530.5Zm0-5.213a3.038,3.038,0,0,1-2.905-2.386l-3.865-16.063a1.092,1.092,0,0,0-1.048-.855h-3.229a.968.968,0,0,1-.946-.99.971.971,0,0,1,.946-.993h3.229a3.047,3.047,0,0,1,2.9,2.39l.544,2.206.063.263H9692a2.964,2.964,0,0,1,2.342,1.206,3.1,3.1,0,0,1,.565,2.659l-2.374,10.175a3.027,3.027,0,0,1-2.908,2.39Zm-1.049-2.835a1.087,1.087,0,0,0,1.049.848h12.633a1.084,1.084,0,0,0,1.049-.852l2.382-10.186a1.152,1.152,0,0,0-.2-.942,1.082,1.082,0,0,0-.854-.446h-18.822Z" transform="translate(-9665.001 14557.001)" fill="#dd2b1c"/>
</svg>
