<svg xmlns="http://www.w3.org/2000/svg" width="23.998" height="30" viewBox="0 0 23.998 30">
  <path id="Path_359" data-name="Path 359" d="M9367.01-14527h0c-1.205,0-2,0-2.009-.006v-.384a12.991,12.991,0,0,1,3.474-9.065,11.691,11.691,0,0,1,8.52-3.623,11.675,11.675,0,0,1,8.527,3.623,12.959,12.959,0,0,1,3.478,9.065v.384h-2.01c.008-.158.012-.327.012-.5a11.207,11.207,0,0,0-.13-1.693,10.628,10.628,0,0,0-2.8-5.874,9.686,9.686,0,0,0-7.08-3,9.7,9.7,0,0,0-7.072,3,10.583,10.583,0,0,0-2.724,5.47,11.152,11.152,0,0,0-.2,2.1c0,.169,0,.34.012.506Zm10-14.156a7.7,7.7,0,0,1-5.506-2.319,7.856,7.856,0,0,1-2.291-5.573,7.988,7.988,0,0,1,2.291-5.607A7.69,7.69,0,0,1,9377-14557a7.85,7.85,0,0,1,7.788,7.893A7.88,7.88,0,0,1,9377-14541.155Zm0-13.843a5.7,5.7,0,0,0-4.077,1.742,6,6,0,0,0-1.721,4.208,5.869,5.869,0,0,0,1.717,4.167,5.694,5.694,0,0,0,4.081,1.729,5.879,5.879,0,0,0,5.786-5.954A5.847,5.847,0,0,0,9377-14555Z" transform="translate(-9365 14556.999)" fill="#dd2b1c"/>
</svg>
