<svg xmlns="http://www.w3.org/2000/svg" width="30.001" height="30" viewBox="0 0 30.001 30">
  <g id="Group_1340" data-name="Group 1340" transform="translate(-405 -375)">
    <path id="Path_349" data-name="Path 349" d="M-15464.973-20764a1.035,1.035,0,0,1-1.028-1.037v-5.18a1.032,1.032,0,0,1,1.028-1.037,1.032,1.032,0,0,1,1.032,1.037v2.748l5.395-5.42-7.152-7.186a1.049,1.049,0,0,1,0-1.471,1.028,1.028,0,0,1,1.461,0v.006l7.153,7.182,1.812-1.82a6.166,6.166,0,0,1,4.387-1.82,6.144,6.144,0,0,1,4.37,1.814l1.607,1.615,5.324-5.354h-2.607a1.037,1.037,0,0,1-1.032-1.039,1.035,1.035,0,0,1,1.032-1.037h5.163a1.034,1.034,0,0,1,1.027,1.037v5.184a1.036,1.036,0,0,1-1.027,1.039,1.037,1.037,0,0,1-1.032-1.039v-2.752l-5.395,5.42,7.152,7.186a1.049,1.049,0,0,1,0,1.471,1.021,1.021,0,0,1-1.455,0c-.006,0-.006,0-.006-.006l-7.153-7.182-1.812,1.82a6.164,6.164,0,0,1-4.382,1.82,6.137,6.137,0,0,1-4.376-1.814l-1.6-1.613-5.327,5.352h2.608a1.037,1.037,0,0,1,1.032,1.039,1.035,1.035,0,0,1-1.032,1.037Zm10.947-7.285a4.124,4.124,0,0,0,5.841.01l1.815-1.824-1.606-1.613a4.12,4.12,0,0,0-5.842,0l-1.812,1.82Z" transform="translate(15871.002 21163.002)" fill="#dd2b1c"/>
    <rect id="Rectangle_491" data-name="Rectangle 491" width="30" height="30" transform="translate(405 375)" fill="none"/>
  </g>
</svg>
