<svg xmlns="http://www.w3.org/2000/svg" width="24.003" height="30" viewBox="0 0 24.003 30">
  <path id="Path_348" data-name="Path 348" d="M-15463.92-20752a2.066,2.066,0,0,1-1.471-.605,2.068,2.068,0,0,1-.61-1.471v-25.854a2.019,2.019,0,0,1,.61-1.461,2.049,2.049,0,0,1,1.466-.609h14.066a2.1,2.1,0,0,1,1.466.609l5.778,5.748a2.049,2.049,0,0,1,.616,1.465v20.1a2.074,2.074,0,0,1-.621,1.471,2.066,2.066,0,0,1-1.471.605Zm-.072-2.008h19.976v-19.736h-4.627a1.641,1.641,0,0,1-1.168-.48l0-.01a1.625,1.625,0,0,1-.49-1.168v-4.6h-13.686Zm4-6.061v-7.594l6.019-2.338,5.982,2.338v7.594l-5.982,2.07Zm6.994-3.172v2.791l3-1.043v-3.547Zm-4.991,1.748,2.988,1.027v-2.775l-2.988-1.789Zm1.079-5.221,2.91,1.746,2.921-1.752-2.9-1.133Z" transform="translate(15466.001 20782)" fill="#dd2b1c"/>
</svg>
