<svg xmlns="http://www.w3.org/2000/svg" width="28.999" height="30" viewBox="0 0 28.999 30">
  <path id="Path_352" data-name="Path 352" d="M-15460.5-20752a5.506,5.506,0,0,1-5.5-5.5v-.088l.006-.037v-.244l-.006-.043V-20776a6.011,6.011,0,0,1,6-6h16a2,2,0,0,1,2,2v11.49a5.918,5.918,0,0,0-2,.537V-20780h-16a4,4,0,0,0-4,4v14.26a5.447,5.447,0,0,1,3.5-1.258h11.016l-2,2h-9.018a3.51,3.51,0,0,0-3.489,3.26,4,4,0,0,0,3.99,3.744h6.456c.079.949.2,1.633.209,1.711l.053.287Zm9.6-.637s-.855-4.8.709-6.363l6.363-6.363a3.991,3.991,0,0,1,5.653,0,3.991,3.991,0,0,1,0,5.654l-6.362,6.367c-.741.742-2.223.939-3.573.939A17.9,17.9,0,0,1-15450.9-20752.637Zm8.485-11.312-6.362,6.363a4.529,4.529,0,0,0-.355,2.361c.006.277.016.539.037.789.245.016.511.025.782.031a4.576,4.576,0,0,0,2.368-.355l6.357-6.363a2,2,0,0,0,0-2.826,2,2,0,0,0-1.413-.584A2.01,2.01,0,0,0-15442.416-20763.949ZM-15459-20772a.993.993,0,0,1-1-1,1,1,0,0,1,1-1h10a1,1,0,0,1,1,1,.993.993,0,0,1-1,1Z" transform="translate(15466.001 20782)" fill="#dd2b1c"/>
</svg>
