<svg xmlns="http://www.w3.org/2000/svg" width="30" height="30" viewBox="0 0 30 30">
  <path id="Path_354" data-name="Path 354" d="M-15454-20752a5,5,0,0,1-5-5v-5h-2.5a4.5,4.5,0,0,1-4.5-4.5v-11a4.5,4.5,0,0,1,4.5-4.5c-.01.016,2.478.016,2.5,0h18a5,5,0,0,1,5,5v20a5,5,0,0,1-5,5Zm-3-25.5v20.5a3,3,0,0,0,3,3h13a3,3,0,0,0,3-3v-20a3,3,0,0,0-3-3h-16Zm-7,0v11a2.5,2.5,0,0,0,2.5,2.5h2.5v-13.5a2.5,2.5,0,0,0-2.5-2.5A2.5,2.5,0,0,0-15464-20777.5Zm12,13.5a1,1,0,0,1-1-1,1,1,0,0,1,1-1h9a1,1,0,0,1,1,1,1,1,0,0,1-1,1Zm0-5a1,1,0,0,1-1-1,1,1,0,0,1,1-1h9a1,1,0,0,1,1,1,1,1,0,0,1-1,1Zm3-5a1,1,0,0,1-1-1,1,1,0,0,1,1-1h6a1,1,0,0,1,1,1,1,1,0,0,1-1,1Z" transform="translate(15466.001 20782)" fill="#dd2b1c"/>
</svg>
