<svg xmlns="http://www.w3.org/2000/svg" width="20.004" height="20.002" viewBox="0 0 20.004 20.002">
  <path id="Path_328" data-name="Path 328" d="M-15453.645-20764.5a2.5,2.5,0,0,1,2.5-2.5,2.5,2.5,0,0,1,2.5,2.5,2.5,2.5,0,0,1-2.5,2.5A2.5,2.5,0,0,1-15453.645-20764.5Zm2,0a.5.5,0,0,0,.5.5.5.5,0,0,0,.5-.5.5.5,0,0,0-.5-.5A.5.5,0,0,0-15451.647-20764.5Zm-8,0a2.5,2.5,0,0,1,2.5-2.5,2.5,2.5,0,0,1,2.5,2.5,2.5,2.5,0,0,1-2.5,2.5A2.5,2.5,0,0,1-15459.648-20764.5Zm2,0a.5.5,0,0,0,.5.5.507.507,0,0,0,.5-.5.5.5,0,0,0-.5-.5A.5.5,0,0,0-15457.646-20764.5Zm.063-3.5a2.376,2.376,0,0,1-2.3-1.758l-2.6-9.029a.339.339,0,0,0-.334-.254h-2.175a1,1,0,0,1-1.007-.986,1,1,0,0,1,1.007-.977h2.175a2.38,2.38,0,0,1,2.311,1.764l2.593,9.027a.349.349,0,0,0,.333.256h7.433a.353.353,0,0,0,.339-.266l1.6-5.355s.183-.58.313-.971a1.091,1.091,0,0,1,1.174-.609.951.951,0,0,1,.72,1c-.084.355-.235,1.039-.235,1.039l-1.591,5.355a2.379,2.379,0,0,1-2.315,1.764Zm3.761-4.006a1.015,1.015,0,0,1-.709-.293c-.021-.02-.042-.041-2.822-2.826a1,1,0,0,1,0-1.414,1,1,0,0,1,1.414,0l1.121,1.121V-20781a1,1,0,0,1,1-1,1,1,0,0,1,1,1v5.582l1.115-1.117a1,1,0,0,1,1.414,0,1,1,0,0,1,0,1.414c-2.78,2.785-2.8,2.807-2.822,2.826a.993.993,0,0,1-.7.293Z" transform="translate(15466.001 20782)" fill="#fff"/>
</svg>
