<svg xmlns="http://www.w3.org/2000/svg" width="19" height="14.002" viewBox="0 0 19 14.002">
  <path id="Path_355" data-name="Path 355" d="M21170,22319a2,2,0,0,1-2-2v-10a1.992,1.992,0,0,1,.174-.816h0s0,0,0-.006A2,2,0,0,1,21170,22305h15a1.973,1.973,0,0,1,1.281.467,2,2,0,0,1,.551.721l0,0a2.012,2.012,0,0,1,.172.813v10a2,2,0,0,1-2,2Zm13.588-2-3.738-3.738-1.264,1.279a1.53,1.53,0,0,1-1.086.455,1.512,1.512,0,0,1-1.082-.455l-1.262-1.279-3.74,3.738Zm1.412-1.416v-7.543l-3.746,3.8Zm-15,0,3.748-3.748-3.748-3.8Zm7.5-2.789,5.713-5.793h-11.426Z" transform="translate(-21168 -22304.998)" fill="#dd2b1c"/>
</svg>
