<svg xmlns="http://www.w3.org/2000/svg" width="180.708" height="35.5" viewBox="0 0 180.708 35.5">
  <g id="logo" transform="translate(-510 -181.5)">
    <g id="Group_1014" data-name="Group 1014">
      <path id="Path_13" data-name="Path 13" d="M-1894.228-5293a12.016,12.016,0,0,1-5.1-1.178,9.663,9.663,0,0,1-4.029-3.536,10.348,10.348,0,0,1-1.537-5.772,11.756,11.756,0,0,1,1.144-5.085,9.194,9.194,0,0,1,3.557-3.923,11.194,11.194,0,0,1,6.022-1.505,14.106,14.106,0,0,1,4.952.962v7.474a5.787,5.787,0,0,0-4.232-1.922,4.1,4.1,0,0,0-2.838,1.025,3.665,3.665,0,0,0-1.145,2.884,4.408,4.408,0,0,0,.926,2.759,3.342,3.342,0,0,0,2.838,1.212,7.354,7.354,0,0,0,4.577-1.862l-.219,7.537a18.138,18.138,0,0,1-4.773.931Zm-58.685,0a15.388,15.388,0,0,1-3.156-.34,7.8,7.8,0,0,1-2.931-1.334,7.168,7.168,0,0,1-2.241-2.976,12.485,12.485,0,0,1-.876-5.027V-5313.6h7.272v10.982a5.51,5.51,0,0,0,.439,2.6,1.7,1.7,0,0,0,1.6.745,2.265,2.265,0,0,0,1.221-.295,1.628,1.628,0,0,0,.66-1.024,8.614,8.614,0,0,0,.188-2.031V-5313.6h7.273v10.919a11.617,11.617,0,0,1-1.929,7.088q-1.913,2.572-7.328,2.59Zm39.172-.5v-20.1h7.4v20.1Zm-64.65,0v-20.1h7.307v13.619h7.116v6.482Zm-9.059,0-.629-2.543h-5.486l-.658,2.543H-2002l7.181-20.1h8.119l7.116,20.1Zm-4.923-7.323h3.041l-1.44-6.667h-.158Zm118.169,7.322-.627-2.544h-5.487l-.658,2.544h-7.775l7.178-20.1h8.121l7.117,20.1Zm-4.923-7.322h3.041l-1.441-6.668h-.157Zm-43.078,7.322-.879-7.941-.344-3.689-.908,3.907-2.291,7.724h-4.389l-2.29-7.724-.94-3.907-.312,3.689-.847,7.941h-7.181l3.48-20.1h7.525l2.886,10.206,2.914-10.206h7.524l3.2,20.1Z" transform="translate(2556.334 5496)" fill="#151616" stroke="rgba(0,0,0,0)" stroke-width="1"/>
      <path id="Path_12" data-name="Path 12" d="M0,19.911a3.134,3.134,0,0,1,.224-1.219A3.024,3.024,0,0,1,.9,17.666l4.946-4.938,0,0,.457-.459.642-.644.63.658.449.467,1,1.022.628.64-.636.633-2.291,2.29.572.583,4.3.043L13.861,15.7l1.766-1.765,2.258-2.253,0-4.345-.574-.583L15.023,9.045l-.634.634-.628-.642-1-1.018L12.3,7.6l-.715-.65.7-.672.53-.506v0L17.71.879A3.041,3.041,0,0,1,19.832,0a2.906,2.906,0,0,1,2.116.865L26.883,5.9l.5.512.628.64-.632.634-.553.556h0l-.958.959-.634.632-.63-.642L22.31,6.853l-.513.512-.006,4.345,2.26,2.3,1.814,1.85,2.255,2.3,4.252,0,.517-.518-2.243-2.287-.628-.64.636-.635.958-.957.008-.006.565-.55.641-.622.62.638.445.459h0l4.882,4.979a2.929,2.929,0,0,1,.618.939,3.148,3.148,0,0,1,.242,1.1l.036.94-.934,0-14.871-.08-.908-.006.02-.914v-.075h0a3.115,3.115,0,0,0-.892-2.2,3.062,3.062,0,0,0-2.172-.923h0a3.06,3.06,0,0,0-2.184.9,3.11,3.11,0,0,0-.912,2.193v.063l.012.92-.91-.006L.888,20.795l-.871-.006Z" transform="translate(510 182)" fill="#dd2b1c" fill-rule="evenodd"/>
    </g>
    <path id="Path_242" data-name="Path 242" d="M4.914-1.691H4.1L1.651-4.467v2.775H.97V-7.166h.681v2.653L4.036-7.166h.772L2.461-4.505Zm5.3-2.745a3.6,3.6,0,0,1-.284,1.484,2.212,2.212,0,0,1-.836.985,2.5,2.5,0,0,1-1.37.353,2.562,2.562,0,0,1-1.4-.353A2.132,2.132,0,0,1,5.5-2.956a3.755,3.755,0,0,1-.273-1.487A3.678,3.678,0,0,1,5.5-5.916,2.138,2.138,0,0,1,6.326-6.9a2.578,2.578,0,0,1,1.4-.353A2.5,2.5,0,0,1,9.092-6.9a2.188,2.188,0,0,1,.836.981A3.6,3.6,0,0,1,10.213-4.436Zm-4.269,0a2.724,2.724,0,0,0,.431,1.629,1.553,1.553,0,0,0,1.347.594A1.541,1.541,0,0,0,9.07-2.807a2.76,2.76,0,0,0,.424-1.629A2.724,2.724,0,0,0,9.07-6.058a1.541,1.541,0,0,0-1.34-.587,1.572,1.572,0,0,0-1.351.587A2.671,2.671,0,0,0,5.943-4.436Zm9.6,2.745H14.86V-4.245H12.09v2.553h-.681V-7.166h.681V-4.85H14.86V-7.166h.681Zm3.792-4.945a1.7,1.7,0,0,0-1.37.59,2.426,2.426,0,0,0-.5,1.618,2.55,2.55,0,0,0,.466,1.614,1.665,1.665,0,0,0,1.4.594A3.553,3.553,0,0,0,20-2.282a6.123,6.123,0,0,0,.621-.153v.6A3.27,3.27,0,0,1,20-1.668a4.744,4.744,0,0,1-.768.054A2.556,2.556,0,0,1,17.85-1.96a2.117,2.117,0,0,1-.829-.981,3.731,3.731,0,0,1-.276-1.5,3.381,3.381,0,0,1,.3-1.461,2.269,2.269,0,0,1,.882-.989,2.663,2.663,0,0,1,1.416-.357,3.261,3.261,0,0,1,1.491.322l-.273.583A4.26,4.26,0,0,0,20-6.545,2.322,2.322,0,0,0,19.334-6.637Zm4.178,4.945h-.681V-6.56H21.143v-.606h4.05v.606h-1.68Zm3.929-5.474a2.323,2.323,0,0,1,1.544.422,1.491,1.491,0,0,1,.484,1.188,1.844,1.844,0,0,1-.2.847,1.492,1.492,0,0,1-.674.64,2.81,2.81,0,0,1-1.283.245h-.621v2.131h-.681V-7.166Zm-.061.59h-.689v2.162h.545a2.094,2.094,0,0,0,1.151-.253.956.956,0,0,0,.378-.859.941.941,0,0,0-.333-.79A1.709,1.709,0,0,0,27.381-6.575Zm5.473,3.327a5.979,5.979,0,0,1-.488.909,1.652,1.652,0,0,1-.579.544,1.771,1.771,0,0,1-.848.18,2.437,2.437,0,0,1-.4-.031A1.972,1.972,0,0,1,30.2-1.73v-.682a1.811,1.811,0,0,0,.325.111,1.538,1.538,0,0,0,.363.042,1.1,1.1,0,0,0,.67-.184,1.656,1.656,0,0,0,.458-.652L29.939-7.166h.749L32.2-4.153q.038.077.091.2t.091.226h.03q.03-.084.076-.2t.076-.2l1.3-3.036h.719Zm6.4,1.556H38.44L36-4.467v2.775h-.681V-7.166H36v2.653l2.384-2.653h.772L36.8-4.505Zm5.45-.606V-.25h-.651V-1.691H39.992V-7.166h.681V-2.3h2.7V-7.166h.674V-2.3Zm.9-4.869h.636V-4.16q0,.253-.008.567t-.019.575q-.011.261-.026.383h.03L49.2-7.166h.757v5.474h-.636V-4.666q0-.284.011-.606t.026-.59q.015-.268.023-.383h-.03L46.366-1.691h-.757ZM56.13-4.436a3.6,3.6,0,0,1-.284,1.484,2.212,2.212,0,0,1-.836.985,2.5,2.5,0,0,1-1.37.353,2.562,2.562,0,0,1-1.4-.353,2.132,2.132,0,0,1-.829-.989,3.755,3.755,0,0,1-.273-1.487,3.678,3.678,0,0,1,.273-1.472,2.138,2.138,0,0,1,.829-.981,2.578,2.578,0,0,1,1.4-.353A2.5,2.5,0,0,1,55.01-6.9a2.188,2.188,0,0,1,.836.981A3.6,3.6,0,0,1,56.13-4.436Zm-4.269,0a2.724,2.724,0,0,0,.431,1.629,1.553,1.553,0,0,0,1.347.594,1.541,1.541,0,0,0,1.347-.594,2.76,2.76,0,0,0,.424-1.629,2.724,2.724,0,0,0-.424-1.622,1.541,1.541,0,0,0-1.34-.587,1.572,1.572,0,0,0-1.351.587A2.671,2.671,0,0,0,51.861-4.436Zm9.6,2.745h-.681V-4.245H58.008v2.553h-.681V-7.166h.681V-4.85h2.771V-7.166h.681Zm5.609,0h-.681V-4.245H63.617v2.553h-.681V-7.166h.681V-4.85h2.771V-7.166h.681Zm1.476,0V-7.166h.681V-4.85h.833a2.822,2.822,0,0,1,1.192.207,1.3,1.3,0,0,1,.621.56,1.67,1.67,0,0,1,.185.79A1.539,1.539,0,0,1,71.6-2.132a2.044,2.044,0,0,1-1.457.441Zm4.345,0V-7.166h.681v5.474Zm-2.808-.583a1.507,1.507,0,0,0,.961-.253.931.931,0,0,0,.31-.767.8.8,0,0,0-.337-.74,1.99,1.99,0,0,0-1.033-.211h-.757v1.97Zm7.978.583H75.04V-7.166h3.02v.606H75.721v1.71h2.2v.6h-2.2V-2.3H78.06Zm6.548,0-.651-1.694H81.814l-.643,1.694h-.689l2.112-5.5h.613l2.1,5.5ZM83.147-5.655q-.023-.061-.076-.222t-.1-.334q-.049-.173-.079-.265-.053.238-.121.464t-.114.357L82.042-4h1.711Zm6.8,3.964h-.681V-6.56H87.552q-.068.567-.151,1.192t-.167,1.192q-.083.567-.167.966a4.838,4.838,0,0,1-.242.874,1.254,1.254,0,0,1-.382.544.994.994,0,0,1-.624.184,1.313,1.313,0,0,1-.261-.027,1.413,1.413,0,0,1-.231-.065v-.575a1.1,1.1,0,0,0,.189.065.923.923,0,0,0,.227.027.418.418,0,0,0,.36-.188,1.474,1.474,0,0,0,.208-.468q.076-.28.129-.556.061-.291.148-.855t.189-1.315q.1-.751.208-1.6h2.96Zm8.228-2.745A3.773,3.773,0,0,1,97.9-2.953a2.168,2.168,0,0,1-.8.985,2.326,2.326,0,0,1-1.317.353,2.444,2.444,0,0,1-1.3-.322,2.092,2.092,0,0,1-.806-.912,3.544,3.544,0,0,1-.31-1.4H92.094v2.553h-.681V-7.166h.681V-4.85h1.294a3.245,3.245,0,0,1,.333-1.269,2,2,0,0,1,.795-.836,2.489,2.489,0,0,1,1.257-.3,2.35,2.35,0,0,1,1.313.349,2.182,2.182,0,0,1,.81.981A3.682,3.682,0,0,1,98.173-4.436Zm-4.088,0a2.858,2.858,0,0,0,.4,1.629,1.434,1.434,0,0,0,1.275.594,1.45,1.45,0,0,0,1.291-.594,2.858,2.858,0,0,0,.4-1.629,2.841,2.841,0,0,0-.4-1.622,1.439,1.439,0,0,0-1.279-.587,1.455,1.455,0,0,0-1.287.59A2.8,2.8,0,0,0,94.085-4.436Zm7.676,2.745-1.779-4.8h-.03q.023.238.038.64t.015.84v3.32h-.628V-7.166h1.007l1.665,4.485h.03l1.7-4.485h1v5.474H104.1V-5.057q0-.4.019-.79t.034-.636h-.03l-1.8,4.792Zm4.489-5.474h.636V-4.16q0,.253-.008.567t-.019.575q-.011.261-.026.383h.03l2.975-4.531h.757v5.474h-.636V-4.666q0-.284.011-.606t.026-.59q.015-.268.023-.383h-.03l-2.982,4.554h-.757Zm9.939,5.474h-.681V-4.245h-2.771v2.553h-.681V-7.166h.681V-4.85h2.771V-7.166h.681Zm1.484-5.474h.636V-4.16q0,.253-.008.567t-.019.575q-.011.261-.026.383h.03l2.975-4.531h.757v5.474h-.636V-4.666q0-.284.011-.606t.026-.59q.015-.268.023-.383h-.03l-2.982,4.554h-.757ZM126.5-1.691h-3.02V-7.166h3.02v.606h-2.339v1.71h2.2v.6h-2.2V-2.3H126.5Zm2.733-5.474a3.1,3.1,0,0,1,1.533.3,1.119,1.119,0,0,1,.519,1.054,1.21,1.21,0,0,1-.265.8,1.248,1.248,0,0,1-.765.41v.038a1.97,1.97,0,0,1,.617.2,1.084,1.084,0,0,1,.435.414,1.357,1.357,0,0,1,.159.7,1.394,1.394,0,0,1-.5,1.15,2.127,2.127,0,0,1-1.374.406h-1.9V-7.166Zm.136,2.331a1.483,1.483,0,0,0,.954-.226.846.846,0,0,0,.257-.671.7.7,0,0,0-.314-.648,1.964,1.964,0,0,0-1-.2h-.893v1.74Zm-1,.575v1.986h1.09a1.387,1.387,0,0,0,1-.284,1.013,1.013,0,0,0,.28-.744A.893.893,0,0,0,130.446-4a1.563,1.563,0,0,0-1.041-.265Zm4.239,2.568V-7.166h.681V-4.85h.833a2.822,2.822,0,0,1,1.192.207,1.3,1.3,0,0,1,.621.56,1.67,1.67,0,0,1,.185.79,1.539,1.539,0,0,1-.458,1.162,2.044,2.044,0,0,1-1.457.441Zm4.345,0V-7.166h.681v5.474Zm-2.808-.583a1.507,1.507,0,0,0,.961-.253.931.931,0,0,0,.31-.767.8.8,0,0,0-.337-.74,1.99,1.99,0,0,0-1.033-.211h-.757v1.97Zm7.978.583H139.1V-7.166h3.02v.606h-2.339v1.71h2.2v.6h-2.2V-2.3h2.339ZM147.6-6.637a1.7,1.7,0,0,0-1.37.59,2.426,2.426,0,0,0-.5,1.618,2.55,2.55,0,0,0,.466,1.614,1.665,1.665,0,0,0,1.4.594,3.553,3.553,0,0,0,.674-.061,6.123,6.123,0,0,0,.621-.153v.6a3.27,3.27,0,0,1-.625.169,4.744,4.744,0,0,1-.768.054,2.556,2.556,0,0,1-1.378-.345,2.117,2.117,0,0,1-.829-.981,3.731,3.731,0,0,1-.276-1.5,3.381,3.381,0,0,1,.3-1.461,2.269,2.269,0,0,1,.882-.989,2.663,2.663,0,0,1,1.416-.357,3.261,3.261,0,0,1,1.491.322l-.273.583a4.259,4.259,0,0,0-.556-.207A2.322,2.322,0,0,0,147.6-6.637Zm2.475-.529h.636V-4.16q0,.253-.008.567t-.019.575q-.011.261-.026.383h.03l2.975-4.531h.757v5.474h-.636V-4.666q0-.284.011-.606t.026-.59q.015-.268.023-.383h-.03l-2.982,4.554h-.757Zm8.122.529a1.7,1.7,0,0,0-1.37.59,2.426,2.426,0,0,0-.5,1.618,2.55,2.55,0,0,0,.466,1.614,1.665,1.665,0,0,0,1.4.594,3.553,3.553,0,0,0,.674-.061,6.123,6.123,0,0,0,.621-.153v.6a3.269,3.269,0,0,1-.624.169,4.744,4.744,0,0,1-.768.054,2.556,2.556,0,0,1-1.378-.345,2.117,2.117,0,0,1-.829-.981,3.731,3.731,0,0,1-.276-1.5,3.381,3.381,0,0,1,.3-1.461,2.269,2.269,0,0,1,.882-.989,2.663,2.663,0,0,1,1.416-.357,3.261,3.261,0,0,1,1.491.322l-.273.583a4.26,4.26,0,0,0-.556-.207A2.322,2.322,0,0,0,158.193-6.637Zm4.178,4.945h-.681V-6.56H160v-.606h4.05v.606h-1.68Zm5.518,0h-3.02V-7.166h3.02v.606h-2.339v1.71h2.2v.6h-2.2V-2.3h2.339Zm3.573,0-1.779-4.8h-.03q.023.238.038.64t.015.84v3.32h-.628V-7.166h1.007L171.75-2.68h.03l1.7-4.485h1v5.474H173.8V-5.057q0-.4.019-.79t.034-.636h-.03l-1.8,4.792Zm4.481,0V-7.166h.681V-4.85h.833a2.822,2.822,0,0,1,1.192.207,1.3,1.3,0,0,1,.621.56,1.671,1.671,0,0,1,.185.79A1.539,1.539,0,0,1,179-2.132a2.044,2.044,0,0,1-1.457.441Zm4.345,0V-7.166h.681v5.474Zm-2.808-.583a1.507,1.507,0,0,0,.961-.253.931.931,0,0,0,.31-.767.8.8,0,0,0-.337-.74,1.99,1.99,0,0,0-1.033-.211h-.757v1.97Z" transform="translate(509.03 217.25)"/>
  </g>
</svg>
