<svg xmlns="http://www.w3.org/2000/svg" width="21" height="20.999" viewBox="0 0 21 20.999">
  <path id="Path_372" data-name="Path 372" d="M14.5,20.856a2.353,2.353,0,0,1-2.649-.742l-3.618-4.56-1.921.7a.685.685,0,0,1-.875-.41l-.128-.35-1.273.463a3.036,3.036,0,0,1-2.078-5.706l1.272-.463L3.1,9.43a.681.681,0,0,1,.409-.872L9.152,6.505A8.509,8.509,0,0,0,14.519.523.671.671,0,0,1,15.142,0a.687.687,0,0,1,.68.45L20.96,14.558a.692.692,0,0,1-.231.78.842.842,0,0,1-.18.089.672.672,0,0,1-.637-.095,8.53,8.53,0,0,0-6.977-1.426l2.6,3.27a2.367,2.367,0,0,1-.368,3.306l-.013.011a4.043,4.043,0,0,1-.385.24l.007.02Zm-1.1-1.96a.38.38,0,0,0,.43.108.763.763,0,0,0,.142-.084.382.382,0,0,0,.014-.525l-3.04-3.828-.756.276ZM6.869,13.907l4.392-1.6a10.521,10.521,0,0,1,6.667-.18L15.059,4.255A10.524,10.524,0,0,1,9.836,8.4l-4.393,1.6ZM2,13.47a1.067,1.067,0,0,0,1.361.634l1.272-.463-.729-2L2.628,12.1A1.065,1.065,0,0,0,2,13.47" transform="translate(0 0)" fill="#151616"/>
</svg>
