<svg xmlns="http://www.w3.org/2000/svg" width="19.001" height="19" viewBox="0 0 19.001 19">
  <path id="Path_320" data-name="Path 320" d="M101.175,83.306a.214.214,0,0,0-.151.069l-2,2c-1.119,1.119.981,6.242,3.681,8.942s7.823,4.8,8.942,3.681l2-2a.2.2,0,0,0-.019-.316l-3.243-2.653a.414.414,0,0,0-.526.024L108.6,94.317a1.815,1.815,0,0,1-2.1.287,6.726,6.726,0,0,1-.707-.426,11.222,11.222,0,0,1-2.943-2.942,6.763,6.763,0,0,1-.424-.7,1.807,1.807,0,0,1,.284-2.108h0l1.264-1.264a.414.414,0,0,0,.024-.526l-2.653-3.243a.215.215,0,0,0-.165-.088m0-2a2.21,2.21,0,0,1,1.713.821l2.653,3.243a2.415,2.415,0,0,1-.157,3.206l-1.135,1.135c.044.078.125.215.254.406a9.224,9.224,0,0,0,2.4,2.4c.191.129.327.21.405.254l1.134-1.134a2.413,2.413,0,0,1,3.207-.158l3.243,2.653a2.2,2.2,0,0,1,.167,3.278l-2,2a3.3,3.3,0,0,1-2.429.893c-2.584,0-6.862-2.095-9.342-4.574a18.327,18.327,0,0,1-3.708-5.718c-1.165-2.833-1.156-4.87.027-6.053l2-2A2.2,2.2,0,0,1,101.175,81.306Z" transform="translate(-96.716 -81.306)" fill="#dd2b1c"/>
</svg>
