<svg xmlns="http://www.w3.org/2000/svg" width="30.001" height="30" viewBox="0 0 30.001 30">
  <path id="_03-uslugi" data-name="03-uslugi" d="M-9713.951-14536.055a3.578,3.578,0,0,1-.011-5.055h0c.036-.039.071-.074.1-.105l4.8-4.811c1.881-1.889,5.168-5.184,6-6.014,1.948-1.943,1.97-6.156,1.97-6.332a5.379,5.379,0,0,1,1.631-3.867,9,9,0,0,1,5.887-2.762,3.473,3.473,0,0,1,2.532.943,1,1,0,0,1,0,1.416l-2.911,2.914c-.224.223-.12,1.373,1.093,2.59a3.646,3.646,0,0,0,2.243,1.186.524.524,0,0,0,.347-.092l2.91-2.916a1.012,1.012,0,0,1,.708-.293,1.006,1.006,0,0,1,.708.293c.938.934,1.188,2.416.707,4.182a9.984,9.984,0,0,1-2.522,4.26,5.455,5.455,0,0,1-3.848,1.646h-.11c-.446,0-4.407.055-6.243,1.891l-10.923,10.926a3.54,3.54,0,0,1-2.533,1.055A3.544,3.544,0,0,1-9713.951-14536.055Zm15.906-24.768a3.416,3.416,0,0,0-1.039,2.434c0,.533-.064,5.277-2.562,7.771-1.437,1.439-10.8,10.83-10.9,10.924a1.577,1.577,0,0,0,.01,2.225,1.553,1.553,0,0,0,1.114.463,1.539,1.539,0,0,0,1.11-.463l10.931-10.928c2.353-2.359,6.8-2.475,7.662-2.475h.1a3.413,3.413,0,0,0,2.437-1.062,7.926,7.926,0,0,0,2.007-3.371,4.224,4.224,0,0,0,.166-1.17l-1.851,1.85a2.426,2.426,0,0,1-1.765.68,5.5,5.5,0,0,1-3.653-1.773,6.055,6.055,0,0,1-1.674-2.834,2.681,2.681,0,0,1,.576-2.592l1.851-1.85h-.053A7.053,7.053,0,0,0-9698.045-14560.822Z" transform="translate(9715.002 14565)" fill="#dd2b1c"/>
</svg>
