<svg xmlns="http://www.w3.org/2000/svg" width="29" height="30" viewBox="0 0 29 30">
  <path id="_02-tehpodderzhka" data-name="02-tehpodderzhka" d="M16.04,29H9.84L8.6,25.227a11.917,11.917,0,0,1-2.565-1.5l-3.831.808-3.435-6.039L1.39,15.506a11.453,11.453,0,0,1,0-2.984L-1.227,9.533,2.208,3.494,6.039,4.3A11.917,11.917,0,0,1,8.6,2.8L9.839-1H16.7l1.237,3.772a11.918,11.918,0,0,1,2.565,1.5l3.831-.808L27.772,9.5l-2.617,2.988a12.444,12.444,0,0,1,.11,1.494v.025a12.442,12.442,0,0,1-.11,1.495l2.617,2.988-3.435,6.039-3.831-.808a11.914,11.914,0,0,1-2.565,1.5L16.7,29Zm-4.871-1.875h4.207L16.466,23.8l.41-.158a10.091,10.091,0,0,0,2.816-1.65l.34-.282,3.375.712,2.1-3.693-2.316-2.645.077-.447A10.536,10.536,0,0,0,23.421,14a10.536,10.536,0,0,0-.152-1.638l-.077-.447L25.509,9.27l-2.1-3.693-3.375.712-.34-.282a10.093,10.093,0,0,0-2.817-1.65l-.41-.158L15.376.875H11.171L10.08,4.228l-.411.158a10.094,10.094,0,0,0-2.816,1.65l-.34.282L3.137,5.605,1.036,9.3l2.316,2.645-.077.447a9.564,9.564,0,0,0,0,3.249l.077.446L1.036,18.73l2.1,3.693,3.375-.712.34.282a10.094,10.094,0,0,0,2.817,1.65l.41.158Zm2.1-6.563A6.563,6.563,0,1,1,19.73,14,6.518,6.518,0,0,1,13.272,20.562Zm0-11.25A4.688,4.688,0,1,0,17.886,14,4.656,4.656,0,0,0,13.272,9.313Z" transform="translate(1.228 1)" fill="#dd2b1c"/>
</svg>
