<svg xmlns="http://www.w3.org/2000/svg" width="20.004" height="20" viewBox="0 0 20.004 20">
  <path id="Path_327" data-name="Path 327" d="M14.709,20,9.845,15.137l1.415-1.416,3.446,3.446L17.171,14.7l-3.446-3.446L15.14,9.841,20,14.7ZM6.625,18.356l-5.083.074.1-5.056,3.22-3.22L0,5.292,5.292,0l4.863,4.863,4.4-4.4a6.653,6.653,0,0,1,3.661,1.4,6.1,6.1,0,0,1,1.322,3.579ZM3.586,16.4l2.2-.034L17.425,4.726A3.078,3.078,0,0,0,16.8,3.284,3.565,3.565,0,0,0,15.249,2.6L3.629,14.217ZM8.737,6.278,5.291,2.832l-2.46,2.46L6.277,8.738Z" fill="#dd2b1c"/>
</svg>
