<svg id="VK_Compact" xmlns="http://www.w3.org/2000/svg" width="44.002" height="44.002" viewBox="0 0 44.002 44.002">
  <path id="Path_363" data-name="Path 363" d="M0,21.121C0,11.164,0,6.186,3.093,3.093S11.164,0,21.121,0h1.76c9.957,0,14.935,0,18.028,3.093S44,11.164,44,21.121v1.76c0,9.957,0,14.935-3.093,18.028S32.838,44,22.881,44h-1.76c-9.957,0-14.935,0-18.028-3.093S0,32.838,0,22.881Z" fill="#2b2a29"/>
  <path id="Path_364" data-name="Path 364" d="M24.087,32.916C14.059,32.916,8.338,26.041,8.1,14.6h5.024c.165,8.4,3.868,11.954,6.8,12.687V14.6h4.73v7.242c2.9-.312,5.94-3.612,6.967-7.242h4.73a13.974,13.974,0,0,1-6.435,9.13,14.473,14.473,0,0,1,7.536,9.185H32.246a9.051,9.051,0,0,0-7.59-6.545v6.545Z" transform="translate(-0.675 -1.216)" fill="#fff"/>
</svg>
