<svg id="you_tube" xmlns="http://www.w3.org/2000/svg" width="44.002" height="44.002" viewBox="0 0 44.002 44.002">
  <path id="Path_363" data-name="Path 363" d="M0,21.121C0,11.164,0,6.186,3.093,3.093S11.164,0,21.121,0h1.76c9.957,0,14.935,0,18.028,3.093S44,11.164,44,21.121v1.76c0,9.957,0,14.935-3.093,18.028S32.838,44,22.881,44h-1.76c-9.957,0-14.935,0-18.028-3.093S0,32.838,0,22.881Z" fill="#2b2a29"/>
  <path id="Path_365" data-name="Path 365" d="M20887.674,22471.549c-.092,0-9.205-.008-11.465-.615a3.677,3.677,0,0,1-2.6-2.594,41.017,41.017,0,0,1,0-14.133,3.677,3.677,0,0,1,2.6-2.594c2.26-.607,11.373-.615,11.465-.615s9.211.008,11.471.615a3.678,3.678,0,0,1,2.594,2.594,40.889,40.889,0,0,1,0,14.133,3.678,3.678,0,0,1-2.594,2.594C20896.885,22471.541,20887.766,22471.549,20887.674,22471.549Zm-2.937-14.674h0v8.8l7.629-4.4-7.629-4.4Z" transform="translate(-20866 -22438.998)" fill="#fff"/>
</svg>
